<mxfile host="app.diagrams.net" modified="2020-06-19T13:55:08.236Z" agent="5.0 (Windows NT 10.0; WOW64) AppleWebKit/537.36 (KHTML, like Gecko) Chrome/83.0.4103.106 Safari/537.36" etag="-pIt4IXDvps5aMUQ-yb3" version="13.2.6" type="github">
  <diagram id="aWp9p0QKdfpLou-LayyQ" name="Page-1">
    <mxGraphModel dx="880" dy="450" grid="1" gridSize="10" guides="1" tooltips="1" connect="1" arrows="1" fold="1" page="1" pageScale="1" pageWidth="827" pageHeight="1169" math="0" shadow="0">
      <root>
        <mxCell id="0" />
        <mxCell id="1" parent="0" />
        <mxCell id="2nzYu-Th28KXxKOlMV2z-15" value="" style="rounded=0;whiteSpace=wrap;html=1;fillColor=none;strokeColor=#000000;" parent="1" vertex="1">
          <mxGeometry x="20" y="210" width="670" height="130" as="geometry" />
        </mxCell>
        <mxCell id="S8PuSPSBRWtJsEwqsa24-10" value="Клиент" style="rounded=0;whiteSpace=wrap;html=1;" parent="1" vertex="1">
          <mxGeometry x="130" y="50" width="120" height="60" as="geometry" />
        </mxCell>
        <mxCell id="S8PuSPSBRWtJsEwqsa24-11" value="Сервер" style="rounded=0;whiteSpace=wrap;html=1;" parent="1" vertex="1">
          <mxGeometry x="370" y="50" width="120" height="60" as="geometry" />
        </mxCell>
        <mxCell id="S8PuSPSBRWtJsEwqsa24-12" value="БД" style="rounded=0;whiteSpace=wrap;html=1;" parent="1" vertex="1">
          <mxGeometry x="610" y="50" width="120" height="60" as="geometry" />
        </mxCell>
        <mxCell id="S8PuSPSBRWtJsEwqsa24-13" value="" style="endArrow=classic;html=1;exitX=0.5;exitY=1;exitDx=0;exitDy=0;" parent="1" source="S8PuSPSBRWtJsEwqsa24-10" edge="1">
          <mxGeometry width="50" height="50" relative="1" as="geometry">
            <mxPoint x="390" y="260" as="sourcePoint" />
            <mxPoint x="190" y="400" as="targetPoint" />
          </mxGeometry>
        </mxCell>
        <mxCell id="S8PuSPSBRWtJsEwqsa24-14" value="" style="endArrow=classic;html=1;exitX=0.5;exitY=1;exitDx=0;exitDy=0;" parent="1" source="S8PuSPSBRWtJsEwqsa24-11" edge="1">
          <mxGeometry width="50" height="50" relative="1" as="geometry">
            <mxPoint x="440" y="120" as="sourcePoint" />
            <mxPoint x="430" y="400" as="targetPoint" />
          </mxGeometry>
        </mxCell>
        <mxCell id="S8PuSPSBRWtJsEwqsa24-15" value="" style="endArrow=classic;html=1;exitX=0.5;exitY=1;exitDx=0;exitDy=0;" parent="1" source="S8PuSPSBRWtJsEwqsa24-12" edge="1">
          <mxGeometry width="50" height="50" relative="1" as="geometry">
            <mxPoint x="390" y="260" as="sourcePoint" />
            <mxPoint x="670" y="400" as="targetPoint" />
          </mxGeometry>
        </mxCell>
        <mxCell id="S8PuSPSBRWtJsEwqsa24-16" value="" style="endArrow=classic;html=1;" parent="1" edge="1">
          <mxGeometry width="50" height="50" relative="1" as="geometry">
            <mxPoint x="80" y="170" as="sourcePoint" />
            <mxPoint x="190" y="170" as="targetPoint" />
          </mxGeometry>
        </mxCell>
        <mxCell id="S8PuSPSBRWtJsEwqsa24-17" value="" style="endArrow=classic;html=1;" parent="1" edge="1">
          <mxGeometry width="50" height="50" relative="1" as="geometry">
            <mxPoint x="190" y="180" as="sourcePoint" />
            <mxPoint x="430" y="180" as="targetPoint" />
          </mxGeometry>
        </mxCell>
        <mxCell id="S8PuSPSBRWtJsEwqsa24-18" value="" style="endArrow=classic;html=1;" parent="1" edge="1">
          <mxGeometry width="50" height="50" relative="1" as="geometry">
            <mxPoint x="430" y="200" as="sourcePoint" />
            <mxPoint x="670" y="200" as="targetPoint" />
          </mxGeometry>
        </mxCell>
        <mxCell id="S8PuSPSBRWtJsEwqsa24-19" value="Ввод данных( ФИ, телефон,&lt;br&gt;услуга, количество)" style="text;html=1;align=center;verticalAlign=middle;resizable=0;points=[];autosize=1;" parent="1" vertex="1">
          <mxGeometry x="11" y="139" width="170" height="30" as="geometry" />
        </mxCell>
        <mxCell id="S8PuSPSBRWtJsEwqsa24-20" value="Проверка данных на наличие и&amp;nbsp;&lt;br&gt;правильность ввода" style="text;html=1;align=center;verticalAlign=middle;resizable=0;points=[];autosize=1;" parent="1" vertex="1">
          <mxGeometry x="224" y="150" width="190" height="30" as="geometry" />
        </mxCell>
        <mxCell id="2nzYu-Th28KXxKOlMV2z-1" value="Проверка" style="text;html=1;align=center;verticalAlign=middle;resizable=0;points=[];autosize=1;" parent="1" vertex="1">
          <mxGeometry x="520" y="180" width="70" height="20" as="geometry" />
        </mxCell>
        <mxCell id="2nzYu-Th28KXxKOlMV2z-3" value="Есть такой заказ" style="text;html=1;align=center;verticalAlign=middle;resizable=0;points=[];autosize=1;" parent="1" vertex="1">
          <mxGeometry x="500" y="210" width="110" height="20" as="geometry" />
        </mxCell>
        <mxCell id="2nzYu-Th28KXxKOlMV2z-10" value="" style="endArrow=classic;dashed=1;endFill=1;endSize=12;html=1;" parent="1" edge="1">
          <mxGeometry width="160" relative="1" as="geometry">
            <mxPoint x="670" y="230" as="sourcePoint" />
            <mxPoint x="430" y="230" as="targetPoint" />
          </mxGeometry>
        </mxCell>
        <mxCell id="2nzYu-Th28KXxKOlMV2z-11" value="" style="endArrow=classic;dashed=1;endFill=1;endSize=12;html=1;" parent="1" edge="1">
          <mxGeometry width="160" relative="1" as="geometry">
            <mxPoint x="430" y="240" as="sourcePoint" />
            <mxPoint x="190" y="240" as="targetPoint" />
          </mxGeometry>
        </mxCell>
        <mxCell id="2nzYu-Th28KXxKOlMV2z-12" value="Такой заказ существует&lt;br&gt;" style="text;html=1;align=center;verticalAlign=middle;resizable=0;points=[];autosize=1;" parent="1" vertex="1">
          <mxGeometry x="240" y="220" width="150" height="20" as="geometry" />
        </mxCell>
        <mxCell id="2nzYu-Th28KXxKOlMV2z-13" value="(ID_заказа)&lt;br&gt;" style="text;html=1;align=center;verticalAlign=middle;resizable=0;points=[];autosize=1;" parent="1" vertex="1">
          <mxGeometry x="515" y="230" width="80" height="20" as="geometry" />
        </mxCell>
        <mxCell id="2nzYu-Th28KXxKOlMV2z-16" value="alt" style="text;html=1;align=center;verticalAlign=middle;resizable=0;points=[];autosize=1;" parent="1" vertex="1">
          <mxGeometry x="20" y="210" width="30" height="20" as="geometry" />
        </mxCell>
        <mxCell id="2nzYu-Th28KXxKOlMV2z-17" value="" style="endArrow=none;dashed=1;html=1;exitX=0.003;exitY=0.431;exitDx=0;exitDy=0;exitPerimeter=0;" parent="1" source="2nzYu-Th28KXxKOlMV2z-15" edge="1">
          <mxGeometry width="50" height="50" relative="1" as="geometry">
            <mxPoint x="290" y="300" as="sourcePoint" />
            <mxPoint x="692" y="268" as="targetPoint" />
            <Array as="points">
              <mxPoint x="260" y="268" />
            </Array>
          </mxGeometry>
        </mxCell>
        <mxCell id="2nzYu-Th28KXxKOlMV2z-19" value="" style="endArrow=classic;dashed=1;endFill=1;endSize=12;html=1;" parent="1" edge="1">
          <mxGeometry width="160" relative="1" as="geometry">
            <mxPoint x="670" y="300" as="sourcePoint" />
            <mxPoint x="430" y="300" as="targetPoint" />
          </mxGeometry>
        </mxCell>
        <mxCell id="2nzYu-Th28KXxKOlMV2z-21" value="Такого заказа нет&lt;br&gt;" style="text;html=1;align=center;verticalAlign=middle;resizable=0;points=[];autosize=1;" parent="1" vertex="1">
          <mxGeometry x="510" y="280" width="110" height="20" as="geometry" />
        </mxCell>
        <mxCell id="2nzYu-Th28KXxKOlMV2z-22" value="" style="endArrow=classic;dashed=1;endFill=1;endSize=12;html=1;" parent="1" edge="1">
          <mxGeometry width="160" relative="1" as="geometry">
            <mxPoint x="430" y="320" as="sourcePoint" />
            <mxPoint x="190" y="320" as="targetPoint" />
          </mxGeometry>
        </mxCell>
        <mxCell id="2nzYu-Th28KXxKOlMV2z-23" value="Заказ добавлен&lt;br&gt;" style="text;html=1;align=center;verticalAlign=middle;resizable=0;points=[];autosize=1;" parent="1" vertex="1">
          <mxGeometry x="250" y="300" width="100" height="20" as="geometry" />
        </mxCell>
      </root>
    </mxGraphModel>
  </diagram>
</mxfile>
